<svg width="512" height="512" viewBox="0 0 512 512" xmlns="http://www.w3.org/2000/svg">
  <rect width="512" height="512" fill="#2563eb" rx="80"/>
  <g transform="translate(96, 96)">
    <!-- Label shape -->
    <rect x="20" y="20" width="280" height="200" fill="white" rx="20" stroke="#1e40af" stroke-width="8"/>
    
    <!-- Lines representing text -->
    <line x1="50" y1="60" x2="270" y2="60" stroke="#2563eb" stroke-width="6" stroke-linecap="round"/>
    <line x1="50" y1="100" x2="220" y2="100" stroke="#2563eb" stroke-width="6" stroke-linecap="round"/>
    <line x1="50" y1="140" x2="240" y2="140" stroke="#2563eb" stroke-width="6" stroke-linecap="round"/>
    <line x1="50" y1="180" x2="200" y2="180" stroke="#2563eb" stroke-width="6" stroke-linecap="round"/>
    
    <!-- Date boxes -->
    <rect x="180" y="85" width="30" height="30" fill="#dbeafe" rx="4"/>
    <rect x="215" y="85" width="30" height="30" fill="#dbeafe" rx="4"/>
    <rect x="250" y="85" width="30" height="30" fill="#dbeafe" rx="4"/>
    
    <!-- Barcode representation -->
    <g transform="translate(40, 240)">
      <rect x="0" y="0" width="4" height="40" fill="#1e40af"/>
      <rect x="8" y="0" width="2" height="40" fill="#1e40af"/>
      <rect x="14" y="0" width="6" height="40" fill="#1e40af"/>
      <rect x="24" y="0" width="2" height="40" fill="#1e40af"/>
      <rect x="30" y="0" width="4" height="40" fill="#1e40af"/>
      <rect x="38" y="0" width="2" height="40" fill="#1e40af"/>
      <rect x="44" y="0" width="6" height="40" fill="#1e40af"/>
      <rect x="54" y="0" width="4" height="40" fill="#1e40af"/>
      <rect x="62" y="0" width="2" height="40" fill="#1e40af"/>
      <rect x="68" y="0" width="6" height="40" fill="#1e40af"/>
    </g>
  </g>
</svg>
